<mxfile host="app.diagrams.net" modified="2021-04-21T03:21:38.141Z" agent="5.0 (Windows NT 6.1; Win64; x64) AppleWebKit/537.36 (KHTML, like Gecko) Chrome/89.0.4389.72 Safari/537.36" etag="wWRS3QSxFQhdC45Ka3IO" version="14.2.9" type="github">
  <diagram id="t4Ar3igG2bWB1md3Jn5b" name="第 1 页">
    <mxGraphModel dx="1414" dy="786" grid="0" gridSize="10" guides="1" tooltips="1" connect="1" arrows="1" fold="1" page="0" pageScale="1" pageWidth="827" pageHeight="1169" math="0" shadow="0">
      <root>
        <mxCell id="0" />
        <mxCell id="1" parent="0" />
        <mxCell id="jOJlzJDerxMGV-HSgP7x-3" value="规则引擎" style="shape=umlFrame;whiteSpace=wrap;html=1;" parent="1" vertex="1">
          <mxGeometry x="75" y="259" width="555" height="452" as="geometry" />
        </mxCell>
        <mxCell id="jOJlzJDerxMGV-HSgP7x-70" style="edgeStyle=orthogonalEdgeStyle;rounded=0;orthogonalLoop=1;jettySize=auto;html=1;exitX=0;exitY=0.75;exitDx=0;exitDy=0;endArrow=classic;endFill=1;dashed=1;" parent="1" source="jOJlzJDerxMGV-HSgP7x-35" target="jOJlzJDerxMGV-HSgP7x-13" edge="1">
          <mxGeometry relative="1" as="geometry" />
        </mxCell>
        <mxCell id="VMp0dJovmwAz3fDCokRF-1" style="edgeStyle=orthogonalEdgeStyle;rounded=0;orthogonalLoop=1;jettySize=auto;html=1;exitX=1;exitY=0.75;exitDx=0;exitDy=0;" edge="1" parent="1" source="jOJlzJDerxMGV-HSgP7x-35" target="jOJlzJDerxMGV-HSgP7x-27">
          <mxGeometry relative="1" as="geometry" />
        </mxCell>
        <mxCell id="jOJlzJDerxMGV-HSgP7x-35" value="&lt;div style=&quot;&quot;&gt;&lt;span&gt;规则动作执行模块&lt;/span&gt;&lt;/div&gt;" style="html=1;dropTarget=0;align=left;verticalAlign=top;" parent="1" vertex="1">
          <mxGeometry x="384" y="400" width="233" height="282" as="geometry" />
        </mxCell>
        <mxCell id="jOJlzJDerxMGV-HSgP7x-36" value="" style="shape=module;jettyWidth=8;jettyHeight=4;" parent="jOJlzJDerxMGV-HSgP7x-35" vertex="1">
          <mxGeometry x="1" width="20" height="20" relative="1" as="geometry">
            <mxPoint x="-27" y="7" as="offset" />
          </mxGeometry>
        </mxCell>
        <mxCell id="jOJlzJDerxMGV-HSgP7x-1" value="规则设置管理模块" style="html=1;dropTarget=0;" parent="1" vertex="1">
          <mxGeometry x="140" y="290" width="180" height="90" as="geometry" />
        </mxCell>
        <mxCell id="jOJlzJDerxMGV-HSgP7x-2" value="" style="shape=module;jettyWidth=8;jettyHeight=4;" parent="jOJlzJDerxMGV-HSgP7x-1" vertex="1">
          <mxGeometry x="1" width="20" height="20" relative="1" as="geometry">
            <mxPoint x="-27" y="7" as="offset" />
          </mxGeometry>
        </mxCell>
        <mxCell id="jOJlzJDerxMGV-HSgP7x-72" value="" style="edgeStyle=orthogonalEdgeStyle;rounded=0;orthogonalLoop=1;jettySize=auto;html=1;dashed=1;startArrow=none;startFill=0;endArrow=classic;endFill=1;" parent="1" source="jOJlzJDerxMGV-HSgP7x-9" target="jOJlzJDerxMGV-HSgP7x-1" edge="1">
          <mxGeometry relative="1" as="geometry" />
        </mxCell>
        <mxCell id="jOJlzJDerxMGV-HSgP7x-9" value="规则SQL组合模块" style="html=1;dropTarget=0;" parent="1" vertex="1">
          <mxGeometry x="140" y="430" width="180" height="90" as="geometry" />
        </mxCell>
        <mxCell id="jOJlzJDerxMGV-HSgP7x-10" value="" style="shape=module;jettyWidth=8;jettyHeight=4;" parent="jOJlzJDerxMGV-HSgP7x-9" vertex="1">
          <mxGeometry x="1" width="20" height="20" relative="1" as="geometry">
            <mxPoint x="-27" y="7" as="offset" />
          </mxGeometry>
        </mxCell>
        <mxCell id="jOJlzJDerxMGV-HSgP7x-71" style="edgeStyle=orthogonalEdgeStyle;rounded=0;orthogonalLoop=1;jettySize=auto;html=1;exitX=0.5;exitY=0;exitDx=0;exitDy=0;entryX=0.5;entryY=1;entryDx=0;entryDy=0;startArrow=none;startFill=0;endArrow=classic;endFill=1;dashed=1;" parent="1" source="jOJlzJDerxMGV-HSgP7x-13" target="jOJlzJDerxMGV-HSgP7x-9" edge="1">
          <mxGeometry relative="1" as="geometry" />
        </mxCell>
        <mxCell id="jOJlzJDerxMGV-HSgP7x-13" value="规则引擎执行模块" style="html=1;dropTarget=0;" parent="1" vertex="1">
          <mxGeometry x="140" y="566" width="180" height="90" as="geometry" />
        </mxCell>
        <mxCell id="jOJlzJDerxMGV-HSgP7x-14" value="" style="shape=module;jettyWidth=8;jettyHeight=4;" parent="jOJlzJDerxMGV-HSgP7x-13" vertex="1">
          <mxGeometry x="1" width="20" height="20" relative="1" as="geometry">
            <mxPoint x="-27" y="7" as="offset" />
          </mxGeometry>
        </mxCell>
        <mxCell id="jOJlzJDerxMGV-HSgP7x-15" value="设备规则动作执行模块" style="html=1;dropTarget=0;" parent="1" vertex="1">
          <mxGeometry x="400" y="430" width="180" height="90" as="geometry" />
        </mxCell>
        <mxCell id="jOJlzJDerxMGV-HSgP7x-16" value="" style="shape=module;jettyWidth=8;jettyHeight=4;" parent="jOJlzJDerxMGV-HSgP7x-15" vertex="1">
          <mxGeometry x="1" width="20" height="20" relative="1" as="geometry">
            <mxPoint x="-27" y="7" as="offset" />
          </mxGeometry>
        </mxCell>
        <mxCell id="jOJlzJDerxMGV-HSgP7x-23" value="三方服务规则动作执行模块" style="html=1;dropTarget=0;" parent="1" vertex="1">
          <mxGeometry x="400" y="570" width="180" height="90" as="geometry" />
        </mxCell>
        <mxCell id="jOJlzJDerxMGV-HSgP7x-24" value="" style="shape=module;jettyWidth=8;jettyHeight=4;" parent="jOJlzJDerxMGV-HSgP7x-23" vertex="1">
          <mxGeometry x="1" width="20" height="20" relative="1" as="geometry">
            <mxPoint x="-27" y="7" as="offset" />
          </mxGeometry>
        </mxCell>
        <mxCell id="jOJlzJDerxMGV-HSgP7x-25" value="物模型信息管理模块" style="html=1;dropTarget=0;" parent="1" vertex="1">
          <mxGeometry x="700" y="430" width="180" height="90" as="geometry" />
        </mxCell>
        <mxCell id="jOJlzJDerxMGV-HSgP7x-26" value="" style="shape=module;jettyWidth=8;jettyHeight=4;" parent="jOJlzJDerxMGV-HSgP7x-25" vertex="1">
          <mxGeometry x="1" width="20" height="20" relative="1" as="geometry">
            <mxPoint x="-27" y="7" as="offset" />
          </mxGeometry>
        </mxCell>
        <mxCell id="jOJlzJDerxMGV-HSgP7x-27" value="Kafka消息中间件" style="html=1;dropTarget=0;" parent="1" vertex="1">
          <mxGeometry x="700" y="566" width="180" height="90" as="geometry" />
        </mxCell>
        <mxCell id="jOJlzJDerxMGV-HSgP7x-28" value="" style="shape=module;jettyWidth=8;jettyHeight=4;" parent="jOJlzJDerxMGV-HSgP7x-27" vertex="1">
          <mxGeometry x="1" width="20" height="20" relative="1" as="geometry">
            <mxPoint x="-27" y="7" as="offset" />
          </mxGeometry>
        </mxCell>
        <mxCell id="jOJlzJDerxMGV-HSgP7x-33" value="" style="edgeStyle=orthogonalEdgeStyle;rounded=0;orthogonalLoop=1;jettySize=auto;html=1;endArrow=none;endFill=0;" parent="1" source="jOJlzJDerxMGV-HSgP7x-32" target="jOJlzJDerxMGV-HSgP7x-15" edge="1">
          <mxGeometry relative="1" as="geometry">
            <mxPoint x="603" y="475" as="targetPoint" />
          </mxGeometry>
        </mxCell>
        <mxCell id="jOJlzJDerxMGV-HSgP7x-34" value="" style="edgeStyle=orthogonalEdgeStyle;rounded=0;orthogonalLoop=1;jettySize=auto;html=1;endArrow=none;endFill=0;" parent="1" source="jOJlzJDerxMGV-HSgP7x-32" target="jOJlzJDerxMGV-HSgP7x-25" edge="1">
          <mxGeometry relative="1" as="geometry" />
        </mxCell>
        <mxCell id="jOJlzJDerxMGV-HSgP7x-32" value="" style="shape=providedRequiredInterface;html=1;verticalLabelPosition=bottom;direction=west;" parent="1" vertex="1">
          <mxGeometry x="634" y="457" width="36" height="36" as="geometry" />
        </mxCell>
        <mxCell id="jOJlzJDerxMGV-HSgP7x-65" style="edgeStyle=orthogonalEdgeStyle;rounded=0;orthogonalLoop=1;jettySize=auto;html=1;exitX=0.5;exitY=1;exitDx=0;exitDy=0;endArrow=none;endFill=0;" parent="1" source="jOJlzJDerxMGV-HSgP7x-56" edge="1">
          <mxGeometry relative="1" as="geometry">
            <mxPoint x="157.5776699029126" y="288.8640776699029" as="targetPoint" />
          </mxGeometry>
        </mxCell>
        <mxCell id="jOJlzJDerxMGV-HSgP7x-56" value="" style="ellipse;fillColor=#ffffff;strokeColor=#000000;align=left;" parent="1" vertex="1">
          <mxGeometry x="147.5" y="223" width="20" height="20" as="geometry" />
        </mxCell>
        <mxCell id="jOJlzJDerxMGV-HSgP7x-58" style="edgeStyle=orthogonalEdgeStyle;rounded=0;orthogonalLoop=1;jettySize=auto;html=1;exitX=0.5;exitY=1;exitDx=0;exitDy=0;endArrow=none;endFill=0;" parent="1" source="jOJlzJDerxMGV-HSgP7x-59" edge="1">
          <mxGeometry relative="1" as="geometry">
            <mxPoint x="207.5" y="290" as="targetPoint" />
            <Array as="points">
              <mxPoint x="207.5" y="290" />
            </Array>
          </mxGeometry>
        </mxCell>
        <mxCell id="jOJlzJDerxMGV-HSgP7x-59" value="" style="ellipse;fillColor=#ffffff;strokeColor=#000000;align=left;" parent="1" vertex="1">
          <mxGeometry x="197.5" y="223" width="20" height="20" as="geometry" />
        </mxCell>
        <mxCell id="jOJlzJDerxMGV-HSgP7x-60" style="edgeStyle=orthogonalEdgeStyle;rounded=0;orthogonalLoop=1;jettySize=auto;html=1;exitX=0.5;exitY=1;exitDx=0;exitDy=0;endArrow=none;endFill=0;" parent="1" source="jOJlzJDerxMGV-HSgP7x-61" edge="1">
          <mxGeometry relative="1" as="geometry">
            <mxPoint x="249.5" y="290" as="targetPoint" />
            <Array as="points">
              <mxPoint x="249.5" y="259" />
              <mxPoint x="249.5" y="259" />
            </Array>
          </mxGeometry>
        </mxCell>
        <mxCell id="jOJlzJDerxMGV-HSgP7x-61" value="" style="ellipse;fillColor=#ffffff;strokeColor=#000000;align=left;" parent="1" vertex="1">
          <mxGeometry x="239.5" y="223" width="20" height="20" as="geometry" />
        </mxCell>
        <mxCell id="jOJlzJDerxMGV-HSgP7x-62" style="edgeStyle=orthogonalEdgeStyle;rounded=0;orthogonalLoop=1;jettySize=auto;html=1;exitX=0.5;exitY=1;exitDx=0;exitDy=0;endArrow=none;endFill=0;" parent="1" source="jOJlzJDerxMGV-HSgP7x-63" edge="1">
          <mxGeometry relative="1" as="geometry">
            <mxPoint x="302.5" y="290" as="targetPoint" />
            <Array as="points">
              <mxPoint x="302.5" y="290" />
            </Array>
          </mxGeometry>
        </mxCell>
        <mxCell id="jOJlzJDerxMGV-HSgP7x-63" value="" style="ellipse;fillColor=#ffffff;strokeColor=#000000;align=left;" parent="1" vertex="1">
          <mxGeometry x="292.5" y="223" width="20" height="20" as="geometry" />
        </mxCell>
        <mxCell id="jOJlzJDerxMGV-HSgP7x-64" style="edgeStyle=orthogonalEdgeStyle;rounded=0;orthogonalLoop=1;jettySize=auto;html=1;exitX=0.5;exitY=1;exitDx=0;exitDy=0;endArrow=none;endFill=0;" parent="1" source="jOJlzJDerxMGV-HSgP7x-59" edge="1">
          <mxGeometry relative="1" as="geometry">
            <mxPoint x="207.5" y="290" as="targetPoint" />
            <mxPoint x="207.5" y="243" as="sourcePoint" />
            <Array as="points">
              <mxPoint x="207.5" y="261" />
              <mxPoint x="207.5" y="261" />
            </Array>
          </mxGeometry>
        </mxCell>
        <mxCell id="jOJlzJDerxMGV-HSgP7x-66" value="创建规则&amp;nbsp;" style="text;html=1;align=center;verticalAlign=middle;resizable=0;points=[];autosize=1;" parent="1" vertex="1">
          <mxGeometry x="116" y="201" width="61" height="18" as="geometry" />
        </mxCell>
        <mxCell id="jOJlzJDerxMGV-HSgP7x-67" value="更新规则" style="text;html=1;align=center;verticalAlign=middle;resizable=0;points=[];autosize=1;" parent="1" vertex="1">
          <mxGeometry x="174" y="201" width="58" height="18" as="geometry" />
        </mxCell>
        <mxCell id="jOJlzJDerxMGV-HSgP7x-68" value="删除规则" style="text;html=1;align=center;verticalAlign=middle;resizable=0;points=[];autosize=1;" parent="1" vertex="1">
          <mxGeometry x="225" y="201" width="58" height="18" as="geometry" />
        </mxCell>
        <mxCell id="jOJlzJDerxMGV-HSgP7x-69" value="查询规则" style="text;html=1;align=center;verticalAlign=middle;resizable=0;points=[];autosize=1;" parent="1" vertex="1">
          <mxGeometry x="280" y="201" width="58" height="18" as="geometry" />
        </mxCell>
        <mxCell id="VMp0dJovmwAz3fDCokRF-2" value="查询物模型信息" style="text;html=1;align=center;verticalAlign=middle;resizable=0;points=[];autosize=1;" vertex="1" parent="1">
          <mxGeometry x="607" y="436" width="94" height="18" as="geometry" />
        </mxCell>
        <mxCell id="VMp0dJovmwAz3fDCokRF-3" value="push" style="text;html=1;align=center;verticalAlign=middle;resizable=0;points=[];autosize=1;" vertex="1" parent="1">
          <mxGeometry x="638" y="591" width="36" height="18" as="geometry" />
        </mxCell>
      </root>
    </mxGraphModel>
  </diagram>
</mxfile>
